<?xml version="1.0" encoding="utf-8"?>
<!-- Generator: Adobe Illustrator 19.2.1, SVG Export Plug-In . SVG Version: 6.00 Build 0)  -->
<svg version="1.1"
	 id="svg2386" inkscape:export-filename="/home/melamud/work/mzroll/dev/mzroll/images/splash.png" inkscape:export-xdpi="90" inkscape:export-ydpi="90" inkscape:output_extension="org.inkscape.output.svg.inkscape" inkscape:version="0.48.1 r9760" sodipodi:docname="splash.png" sodipodi:version="0.32" xmlns:cc="http://creativecommons.org/ns#" xmlns:dc="http://purl.org/dc/elements/1.1/" xmlns:inkscape="http://www.inkscape.org/namespaces/inkscape" xmlns:rdf="http://www.w3.org/1999/02/22-rdf-syntax-ns#" xmlns:sodipodi="http://sodipodi.sourceforge.net/DTD/sodipodi-0.dtd" xmlns:svg="http://www.w3.org/2000/svg"
	 xmlns="http://www.w3.org/2000/svg" xmlns:xlink="http://www.w3.org/1999/xlink" x="0px" y="0px" viewBox="0 0 400 400"
	 style="enable-background:new 0 0 400 400;" xml:space="preserve">
<style type="text/css">
	.st0{fill:#B3B3B3;stroke:#000000;stroke-width:0.8546;}
	.st1{fill:#FFFFFF;stroke:#000000;stroke-width:0.863;}
	.st2{opacity:0.9399;filter:url(#filter18044_1_);enable-background:new    ;}
	.st3{fill:#599334;}
	.st4{fill:none;stroke:#000000;stroke-width:1.25;}
	.st5{opacity:0.9399;filter:url(#filter18034_1_);enable-background:new    ;}
	.st6{fill:#2E6022;}
	.st7{opacity:0.9399;filter:url(#filter18024_1_);enable-background:new    ;}
	.st8{fill:#163316;}
	.st9{opacity:0.9399;filter:url(#filter17916);enable-background:new    ;}
	.st10{opacity:0.9399;filter:url(#filter17934);enable-background:new    ;}
	.st11{opacity:0.9399;filter:url(#filter17952);enable-background:new    ;}
	.st12{stroke:#000000;stroke-width:2;}
	.st13{font-family:'MyriadPro-Regular';}
	.st14{font-size:38.5988px;}
</style>
<filter  color-interpolation-filters="sRGB" id="filter18044" inkscape:label="Smooth edges" inkscape:menu="Morphology" inkscape:menu-tooltip="Smooth the outside of shapes and pictures without altering their contents">
	<feGaussianBlur  id="feGaussianBlur18046" result="result1" stdDeviation="3"></feGaussianBlur>
	
		<feComposite  id="feComposite18048" in="result1" in2="SourceGraphic" k1="0" k2="2" k3="0" k4="-1" operator="arithmetic" result="result2">
		</feComposite>
	<feColorMatrix  id="feColorMatrix18050" result="result3" values="0 0 0 0 0 0 1 0 0 0 0 0 1 0 0 0 0 0 8 -6 "></feColorMatrix>
	<feComposite  id="feComposite18052" in="SourceGraphic" in2="result3" operator="in"></feComposite>
</filter>
<filter  color-interpolation-filters="sRGB" id="filter18034" inkscape:label="Smooth edges" inkscape:menu="Morphology" inkscape:menu-tooltip="Smooth the outside of shapes and pictures without altering their contents">
	<feGaussianBlur  id="feGaussianBlur18036" result="result1" stdDeviation="3"></feGaussianBlur>
	
		<feComposite  id="feComposite18038" in="result1" in2="SourceGraphic" k1="0" k2="2" k3="0" k4="-1" operator="arithmetic" result="result2">
		</feComposite>
	<feColorMatrix  id="feColorMatrix18040" result="result3" values="0 0 0 0 0 0 1 0 0 0 0 0 1 0 0 0 0 0 8 -6 "></feColorMatrix>
	<feComposite  id="feComposite18042" in="SourceGraphic" in2="result3" operator="in"></feComposite>
</filter>
<filter  color-interpolation-filters="sRGB" id="filter18024" inkscape:label="Smooth edges" inkscape:menu="Morphology" inkscape:menu-tooltip="Smooth the outside of shapes and pictures without altering their contents">
	<feGaussianBlur  id="feGaussianBlur18026" result="result1" stdDeviation="3"></feGaussianBlur>
	
		<feComposite  id="feComposite18028" in="result1" in2="SourceGraphic" k1="0" k2="2" k3="0" k4="-1" operator="arithmetic" result="result2">
		</feComposite>
	<feColorMatrix  id="feColorMatrix18030" result="result3" values="0 0 0 0 0 0 1 0 0 0 0 0 1 0 0 0 0 0 8 -6 "></feColorMatrix>
	<feComposite  id="feComposite18032" in="SourceGraphic" in2="result3" operator="in"></feComposite>
</filter>
<filter  color-interpolation-filters="sRGB" id="filter17952" inkscape:label="Parallel hollow" inkscape:menu="Morphology" inkscape:menu-tooltip="A blurry hollow going parallel to the edge on the inside">
	<feGaussianBlur  id="feGaussianBlur17954" in="SourceAlpha" result="result1" stdDeviation="7.5"></feGaussianBlur>
	<feComposite  id="feComposite17956" in2="result1" k1="-1" k2="3.2" k4="-2" operator="arithmetic"></feComposite>
	<feColorMatrix  id="feColorMatrix17958" result="result91" values="0 0 0 0 0 0 1 0 0 0 0 0 1 0 0 0 0 0 3 0 "></feColorMatrix>
	<feComposite  id="feComposite17960" in="SourceGraphic" in2="result91" operator="out" result="fbSourceGraphic"></feComposite>
	<feGaussianBlur  id="feGaussianBlur17962" in="fbSourceGraphic" result="result92" stdDeviation="2"></feGaussianBlur>
	<feComposite  id="feComposite17964" in="fbSourceGraphic" in2="result92" operator="out" result="result93"></feComposite>
	<feBlend  id="feBlend17966" in2="result93" mode="multiply" result="result94"></feBlend>
	<feBlend  id="feBlend17968" in2="result94" mode="darken"></feBlend>
</filter>
<filter  color-interpolation-filters="sRGB" id="filter17934" inkscape:label="Parallel hollow" inkscape:menu="Morphology" inkscape:menu-tooltip="A blurry hollow going parallel to the edge on the inside">
	<feGaussianBlur  id="feGaussianBlur17936" in="SourceAlpha" result="result1" stdDeviation="7.5"></feGaussianBlur>
	<feComposite  id="feComposite17938" in2="result1" k1="-1" k2="3.2" k4="-2" operator="arithmetic"></feComposite>
	<feColorMatrix  id="feColorMatrix17940" result="result91" values="0 0 0 0 0 0 1 0 0 0 0 0 1 0 0 0 0 0 3 0 "></feColorMatrix>
	<feComposite  id="feComposite17942" in="SourceGraphic" in2="result91" operator="out" result="fbSourceGraphic"></feComposite>
	<feGaussianBlur  id="feGaussianBlur17944" in="fbSourceGraphic" result="result92" stdDeviation="2"></feGaussianBlur>
	<feComposite  id="feComposite17946" in="fbSourceGraphic" in2="result92" operator="out" result="result93"></feComposite>
	<feBlend  id="feBlend17948" in2="result93" mode="multiply" result="result94"></feBlend>
	<feBlend  id="feBlend17950" in2="result94" mode="darken"></feBlend>
</filter>
<filter  color-interpolation-filters="sRGB" id="filter17916" inkscape:label="Parallel hollow" inkscape:menu="Morphology" inkscape:menu-tooltip="A blurry hollow going parallel to the edge on the inside">
	<feGaussianBlur  id="feGaussianBlur17918" in="SourceAlpha" result="result1" stdDeviation="7.5"></feGaussianBlur>
	<feComposite  id="feComposite17920" in2="result1" k1="-1" k2="3.2" k4="-2" operator="arithmetic"></feComposite>
	<feColorMatrix  id="feColorMatrix17922" result="result91" values="0 0 0 0 0 0 1 0 0 0 0 0 1 0 0 0 0 0 3 0 "></feColorMatrix>
	<feComposite  id="feComposite17924" in="SourceGraphic" in2="result91" operator="out" result="fbSourceGraphic"></feComposite>
	<feGaussianBlur  id="feGaussianBlur17926" in="fbSourceGraphic" result="result92" stdDeviation="2"></feGaussianBlur>
	<feComposite  id="feComposite17928" in="fbSourceGraphic" in2="result92" operator="out" result="result93"></feComposite>
	<feBlend  id="feBlend17930" in2="result93" mode="multiply" result="result94"></feBlend>
	<feBlend  id="feBlend17932" in2="result94" mode="darken"></feBlend>
</filter>
<defs>
	
	
		<inkscape:perspective  id="perspective2394" inkscape:persp3d-origin="1867.4354 : 1255.8591 : 1" inkscape:vp_x="-188.1357 : 314.01822 : 1" inkscape:vp_y="0 : 1057.9279 : 0" inkscape:vp_z="3923.0066 : 2568.8078 : 1" sodipodi:type="inkscape:persp3d">
		</inkscape:perspective>
	
		<inkscape:perspective  id="perspective3842" inkscape:persp3d-origin="0.5 : 0.33333333 : 1" inkscape:vp_x="0 : 0.5 : 1" inkscape:vp_y="0 : 1000 : 0" inkscape:vp_z="1 : 0.5 : 1" sodipodi:type="inkscape:persp3d">
		</inkscape:perspective>
	
		<inkscape:perspective  id="perspective3867" inkscape:persp3d-origin="0.5 : 0.33333333 : 1" inkscape:vp_x="0 : 0.5 : 1" inkscape:vp_y="0 : 1000 : 0" inkscape:vp_z="1 : 0.5 : 1" sodipodi:type="inkscape:persp3d">
		</inkscape:perspective>
	
		<inkscape:perspective  id="perspective3638" inkscape:persp3d-origin="0.5 : 0.33333333 : 1" inkscape:vp_x="0 : 0.5 : 1" inkscape:vp_y="0 : 1000 : 0" inkscape:vp_z="1 : 0.5 : 1" sodipodi:type="inkscape:persp3d">
		</inkscape:perspective>
	
		<inkscape:perspective  id="perspective2880" inkscape:persp3d-origin="0.5 : 0.33333333 : 1" inkscape:vp_x="0 : 0.5 : 1" inkscape:vp_y="0 : 1000 : 0" inkscape:vp_z="1 : 0.5 : 1" sodipodi:type="inkscape:persp3d">
		</inkscape:perspective>
	
		<inkscape:perspective  id="perspective2902" inkscape:persp3d-origin="0.5 : 0.33333333 : 1" inkscape:vp_x="0 : 0.5 : 1" inkscape:vp_y="0 : 1000 : 0" inkscape:vp_z="1 : 0.5 : 1" sodipodi:type="inkscape:persp3d">
		</inkscape:perspective>
	
		<inkscape:perspective  id="perspective2924" inkscape:persp3d-origin="0.5 : 0.33333333 : 1" inkscape:vp_x="0 : 0.5 : 1" inkscape:vp_y="0 : 1000 : 0" inkscape:vp_z="1 : 0.5 : 1" sodipodi:type="inkscape:persp3d">
		</inkscape:perspective>
	
		<inkscape:perspective  id="perspective2946" inkscape:persp3d-origin="0.5 : 0.33333333 : 1" inkscape:vp_x="0 : 0.5 : 1" inkscape:vp_y="0 : 1000 : 0" inkscape:vp_z="1 : 0.5 : 1" sodipodi:type="inkscape:persp3d">
		</inkscape:perspective>
	
		<inkscape:perspective  id="perspective3772" inkscape:persp3d-origin="0.5 : 0.33333333 : 1" inkscape:vp_x="0 : 0.5 : 1" inkscape:vp_y="0 : 1000 : 0" inkscape:vp_z="1 : 0.5 : 1" sodipodi:type="inkscape:persp3d">
		</inkscape:perspective>
</defs>
<sodipodi:namedview  bordercolor="#666666" borderlayer="false" borderopacity="1.0" gridtolerance="10000" guidetolerance="10" id="base" inkscape:current-layer="layer1" inkscape:cx="200" inkscape:cy="200" inkscape:document-units="px" inkscape:guide-bbox="true" inkscape:pageopacity="0.0" inkscape:pageshadow="2" inkscape:showpageshadow="false" inkscape:window-height="744" inkscape:window-maximized="1" inkscape:window-width="1024" inkscape:window-x="0" inkscape:window-y="24" inkscape:zoom="1.3925" objecttolerance="10" pagecolor="#ffffff" showborder="true" showgrid="false" showguides="true">
	</sodipodi:namedview>
<path id="path17587" inkscape:connector-curvature="0" sodipodi:nodetypes="ccccc" class="st0" d="M4,290.3l71.7,65.9L395.6,309
	l-82.3-30.6L4,290.3z"/>
<path id="path17545" inkscape:connector-curvature="0" sodipodi:nodetypes="ccccc" class="st1" d="M57.8,31.8l15.2,318.4l322.1-40.8
	L347.4,19.7L57.8,31.8z"/>
<g id="path17549" inkscape:connector-curvature="0" sodipodi:nodetypes="csccsssc" class="st2">
	<path class="st3" d="M87.9,343.3c0,0,27,2.8,41.5-27.3c14.4-30.1,16.2-75.2,16.2-75.2l8.1-185.2c0,0,37,156.1,43.3,169.3
		c6.3,13.2,18.9,44.2,38.8,63c19.8,18.8,49.6,30.1,60.4,30.1C307,317.9,87.9,343.3,87.9,343.3L87.9,343.3z"/>
	<path class="st4" d="M87.9,343.3c0,0,27,2.8,41.5-27.3c14.4-30.1,16.2-75.2,16.2-75.2l8.1-185.2c0,0,37,156.1,43.3,169.3
		c6.3,13.2,18.9,44.2,38.8,63c19.8,18.8,49.6,30.1,60.4,30.1C307,317.9,87.9,343.3,87.9,343.3L87.9,343.3z"/>
</g>
<g id="path17549-9" inkscape:connector-curvature="0" sodipodi:nodetypes="csccsssc" class="st5">
	<path class="st6" d="M155.8,333.8c0,0,21.2,2.2,32.4-21.6c11.3-23.9,12.7-59.7,12.7-59.7l6.3-147.1c0,0,28.9,123.9,33.8,134.4
		c4.9,10.5,14.8,35.1,30.3,50s38.8,23.9,47.2,23.9C327.1,313.6,155.8,333.8,155.8,333.8L155.8,333.8z"/>
	<path class="st4" d="M155.8,333.8c0,0,21.2,2.2,32.4-21.6c11.3-23.9,12.7-59.7,12.7-59.7l6.3-147.1c0,0,28.9,123.9,33.8,134.4
		c4.9,10.5,14.8,35.1,30.3,50s38.8,23.9,47.2,23.9C327.1,313.6,155.8,333.8,155.8,333.8L155.8,333.8z"/>
</g>
<g id="path17549-9-2" inkscape:connector-curvature="0" sodipodi:nodetypes="csccsssc" class="st7">
	<path class="st8" d="M216.8,326.3c0,0,17.6,1.8,27-17.8c9.4-19.6,10.5-49.1,10.5-49.1l5.3-120.9c0,0,24,101.9,28.1,110.5
		c4.1,8.6,12.3,28.8,25.2,41.1c12.9,12.3,32.2,19.6,39.3,19.6S216.8,326.3,216.8,326.3z"/>
	<path class="st4" d="M216.8,326.3c0,0,17.6,1.8,27-17.8c9.4-19.6,10.5-49.1,10.5-49.1l5.3-120.9c0,0,24,101.9,28.1,110.5
		c4.1,8.6,12.3,28.8,25.2,41.1c12.9,12.3,32.2,19.6,39.3,19.6S216.8,326.3,216.8,326.3z"/>
</g>
<g id="path7061-8-8" sodipodi:cx="-157.77777" sodipodi:cy="220" sodipodi:rx="54.444443" sodipodi:ry="52.222221" sodipodi:type="arc" class="st9">
	<path class="st3" d="M167.7,62.2c0,7.6-5.8,13.8-13.1,13.8c-7.2,0-13.1-6.2-13.1-13.8c0,0,0,0,0,0c0-7.6,5.8-13.8,13.1-13.8
		C161.8,48.4,167.7,54.5,167.7,62.2C167.7,62.2,167.7,62.2,167.7,62.2z"/>
	<path class="st4" d="M167.7,62.2c0,7.6-5.8,13.8-13.1,13.8c-7.2,0-13.1-6.2-13.1-13.8c0,0,0,0,0,0c0-7.6,5.8-13.8,13.1-13.8
		C161.8,48.4,167.7,54.5,167.7,62.2C167.7,62.2,167.7,62.2,167.7,62.2z"/>
</g>
<g id="path7061" sodipodi:cx="-157.77777" sodipodi:cy="220" sodipodi:rx="54.444443" sodipodi:ry="52.222221" sodipodi:type="arc" class="st10">
	<path class="st6" d="M221.4,108.7c0,8-6.2,14.6-13.8,14.6c-7.6,0-13.8-6.5-13.8-14.6c0,0,0,0,0,0c0-8,6.2-14.6,13.8-14.6
		C215.2,94.1,221.4,100.6,221.4,108.7C221.4,108.7,221.4,108.7,221.4,108.7z"/>
	<path class="st4" d="M221.4,108.7c0,8-6.2,14.6-13.8,14.6c-7.6,0-13.8-6.5-13.8-14.6c0,0,0,0,0,0c0-8,6.2-14.6,13.8-14.6
		C215.2,94.1,221.4,100.6,221.4,108.7C221.4,108.7,221.4,108.7,221.4,108.7z"/>
</g>
<g id="path7061-8" sodipodi:cx="-157.77777" sodipodi:cy="220" sodipodi:rx="54.444443" sodipodi:ry="52.222221" sodipodi:type="arc" class="st11">
	<path class="st6" d="M274.7,143.2c0,9.3-6.8,16.8-15.2,16.8c-8.4,0-15.3-7.5-15.3-16.8c0,0,0,0,0,0c0-9.3,6.8-16.8,15.3-16.8
		C267.8,126.4,274.7,133.9,274.7,143.2C274.7,143.2,274.7,143.2,274.7,143.2z"/>
	<path class="st4" d="M274.7,143.2c0,9.3-6.8,16.8-15.2,16.8c-8.4,0-15.3-7.5-15.3-16.8c0,0,0,0,0,0c0-9.3,6.8-16.8,15.3-16.8
		C267.8,126.4,274.7,133.9,274.7,143.2C274.7,143.2,274.7,143.2,274.7,143.2z"/>
</g>
<text transform="matrix(0.841 -3.245472e-02 3.827243e-02 0.9993 179.9893 68.9157)" class="st12 st13 st14">MAVEN MS2</text>
</svg>
